<svg height="448pt" viewBox="-40 0 448 448" width="448pt" xmlns="http://www.w3.org/2000/svg"><path d="m72 136h224v96h-224zm0 0"/><path d="m128 56h112c4.800781 0 8-3.199219 8-8v-40c0-4.800781-3.199219-8-8-8h-112c-4.800781 0-8 3.199219-8 8v40c0 4.800781 3.199219 8 8 8zm24-32h64v16h-64zm0 0"/><path d="m360 24h-96v16h88v331.199219l-60.800781 60.800781h-275.199219v-392h72v16h-56v360h248v-56h56v-304h-73.601562c-3.199219 9.601562-12 16-22.398438 16h-112c-13.601562 0-24-10.398438-24-24v-24h-96c-4.800781 0-8 3.199219-8 8v408c0 4.800781 3.199219 8 8 8h352c4.800781 0 8-3.199219 8-8v-408c0-4.800781-3.199219-8-8-8zm-304 240h56v16h-56zm0 32h104v16h-104zm0 32h152v16h-152zm200 48h-200v-16h200zm56-32h-88v-16h88zm0-32h-136v-16h136zm0-32h-184v-16h184zm-184-192h112v16h-112zm184 32v128h-256v-128zm0 0"/><path d="m324.800781 376h-28.800781v28.800781zm0 0"/></svg>